<svg width="506" height="36" viewBox="0 0 506 36" fill="none" xmlns="http://www.w3.org/2000/svg">
<path d="M29.5873 24.5789H25.1792L22.4615 11.497L14.8717 26.1023L7.41443 11.5301L4.72983 24.5789H0.321777L6.18814 0.335999L14.8717 18.2201L23.6878 0.335999L29.5873 24.5789Z" fill="#ECC99F"/>
<path d="M51.6614 4.7077C50.9322 3.68102 49.9048 2.91928 48.6453 2.38939C47.3527 1.85949 45.8281 1.59454 44.1047 1.59454C42.0829 1.59454 40.3595 1.89261 38.9012 2.52186C37.476 3.15112 36.316 3.78038 35.4543 4.37652L37.3766 7.35719C37.7412 7.09224 38.2383 6.79418 38.8681 6.39676C39.4978 6.03245 40.2601 5.70126 41.1549 5.40319C42.0167 5.13824 43.011 4.97265 44.1047 4.97265C45.331 4.97265 46.4579 5.27072 47.419 5.83373C48.3802 6.39675 48.8442 7.25783 48.8442 8.41699V12.1594C48.2807 11.7951 47.5516 11.4308 46.723 11.1327C45.6956 10.7684 44.4693 10.5697 43.011 10.5697C41.0555 10.5697 39.3652 10.8678 37.9069 11.4639C36.4817 12.0601 35.3549 12.9211 34.5926 14.0472C33.7971 15.1401 33.3994 16.498 33.3994 18.0877C33.3994 19.6774 33.764 20.9027 34.46 21.9294C35.156 22.9561 36.084 23.751 37.2772 24.2477C38.4703 24.7776 39.7629 25.0426 41.1549 25.0426C42.7127 25.0426 44.1378 24.7776 45.3973 24.2477C46.6567 23.7178 47.6842 22.923 48.4465 21.8963C48.579 21.7307 48.7116 21.532 48.811 21.3333V24.5458H52.7219V8.38388C52.7219 6.92665 52.3574 5.66815 51.6282 4.67458L51.6614 4.7077ZM47.9825 19.1475C47.419 20.0085 46.6236 20.6047 45.5961 21.0021C44.5687 21.3995 43.4087 21.5982 42.1161 21.5982C41.2212 21.5982 40.4258 21.4658 39.7298 21.1677C39.0006 20.9028 38.4372 20.4722 38.0063 19.9423C37.5755 19.4124 37.3766 18.75 37.3766 17.9552C37.3766 17.0279 37.5755 16.2661 38.0063 15.6038C38.4372 14.9414 39.0669 14.4446 39.9286 14.0803C40.7904 13.716 41.8841 13.5504 43.1767 13.5504C44.6018 13.5504 45.8944 13.7491 47.0544 14.1134C47.651 14.3121 48.2145 14.544 48.811 14.8751V15.7693C48.811 17.1603 48.5459 18.2864 47.9493 19.1475H47.9825Z" fill="#ECC99F"/>
<path d="M77.1141 2.2569V24.7776H73.1701V14.7426H60.6751V24.7776H56.7642V2.2569H60.6751V11.0665H73.1701V2.2569H77.1141Z" fill="#ECC99F"/>
<path d="M99.9176 0.336029V24.5789H96.0067V9.97357L81.0591 26.3011V2.0582H84.97V16.6636L99.9176 0.336029Z" fill="#ECC99F"/>
<path d="M122.058 24.5789H117.152L107.839 13.153V24.5789H103.928V2.05823H107.839V9.9736L116.158 2.05823H121.063L111.253 11.3646L122.058 24.5789Z" fill="#ECC99F"/>
<path d="M155.763 7.25784C154.736 5.50255 153.344 4.11156 151.587 3.118C149.831 2.09132 147.842 1.59454 145.622 1.59454C143.401 1.59454 141.479 2.09132 139.689 3.118C137.932 4.11156 136.54 5.50255 135.513 7.25784C134.883 8.35076 134.419 9.57615 134.187 10.8678H130.044V2.0582H126.133V24.5789H130.044V14.544H134.021C134.187 16.2992 134.651 17.9221 135.513 19.3793C136.54 21.1677 137.932 22.5587 139.689 23.5522C141.445 24.5789 143.434 25.0757 145.622 25.0757C147.809 25.0757 149.831 24.5789 151.587 23.5522C153.344 22.5587 154.736 21.1346 155.763 19.3793C156.791 17.624 157.288 15.6038 157.288 13.3186C157.288 11.0334 156.791 9.01314 155.763 7.22473V7.25784ZM152.316 17.4915C151.654 18.6838 150.726 19.6442 149.566 20.3397C148.406 21.0352 147.08 21.3995 145.622 21.3995C144.163 21.3995 142.837 21.0683 141.677 20.3397C140.517 19.6442 139.589 18.6838 138.927 17.4915C138.264 16.2661 137.932 14.9083 137.932 13.3186C137.932 11.7289 138.264 10.371 138.927 9.14561C139.589 7.92021 140.517 6.95977 141.677 6.29739C142.837 5.6019 144.13 5.27072 145.622 5.27072C147.113 5.27072 148.406 5.6019 149.566 6.29739C150.726 6.99289 151.654 7.92021 152.316 9.14561C152.979 10.371 153.311 11.762 153.311 13.3186C153.311 14.8751 152.979 16.2661 152.316 17.4915Z" fill="#ECC99F"/>
<path d="M182.511 7.02599C181.484 5.2707 180.158 3.94595 178.468 2.98551C176.778 2.02506 174.922 1.5614 172.867 1.5614C171.011 1.5614 169.354 2.02506 167.928 2.98551C166.835 3.71412 165.907 4.70768 165.178 5.93307V2.05819H161.267V35.3756H165.178V20.6709C165.907 21.9294 166.835 22.923 167.928 23.6516C169.354 24.612 170.978 25.0757 172.867 25.0757C174.922 25.0757 176.778 24.612 178.468 23.6516C180.158 22.7243 181.484 21.3664 182.511 19.578C183.506 17.8227 184.036 15.7362 184.036 13.3186C184.036 10.9009 183.539 8.78128 182.511 7.02599ZM178.998 17.7233C178.302 18.9156 177.374 19.8429 176.214 20.4722C175.054 21.1014 173.762 21.3995 172.37 21.3995C171.243 21.3995 170.116 21.1014 168.989 20.4722C167.895 19.8429 166.967 18.9487 166.238 17.7233C165.509 16.5311 165.178 15.0407 165.178 13.3186C165.178 11.5964 165.542 10.106 166.238 8.91376C166.967 7.72148 167.862 6.79417 168.989 6.16491C170.116 5.53566 171.243 5.23758 172.37 5.23758C173.762 5.23758 175.054 5.53566 176.214 6.16491C177.374 6.79417 178.302 7.68837 178.998 8.91376C179.694 10.106 180.059 11.5964 180.059 13.3186C180.059 15.0407 179.694 16.5311 178.998 17.7233Z" fill="#ECC99F"/>
<path d="M229.872 24.5789H224.967L215.654 13.153V24.5789H211.743V2.05823H215.654V9.9736L223.973 2.05823H228.878L219.067 11.3646L229.872 24.5789Z" fill="#ECC99F"/>
<path d="M252.311 4.7077C251.582 3.68102 250.554 2.91928 249.262 2.38939C247.969 1.85949 246.445 1.59454 244.721 1.59454C242.699 1.59454 240.976 1.89261 239.518 2.52186C238.092 3.15112 236.932 3.78038 236.104 4.37652L238.026 7.35719C238.391 7.09224 238.888 6.79418 239.518 6.39676C240.147 6.03245 240.91 5.70126 241.804 5.40319C242.699 5.10512 243.66 4.97265 244.754 4.97265C245.981 4.97265 247.107 5.27072 248.069 5.83373C249.03 6.39675 249.527 7.25783 249.527 8.41699V12.1594C248.963 11.762 248.234 11.4308 247.406 11.1327C246.378 10.7684 245.152 10.5697 243.694 10.5697C241.738 10.5697 240.048 10.8678 238.59 11.4639C237.164 12.0601 236.038 12.9211 235.275 14.0472C234.48 15.1401 234.115 16.498 234.115 18.0877C234.115 19.6774 234.447 20.9027 235.176 21.9294C235.872 22.9561 236.8 23.751 237.993 24.2477C239.153 24.7776 240.446 25.0426 241.871 25.0426C243.429 25.0426 244.854 24.7776 246.146 24.2477C247.406 23.7178 248.433 22.923 249.195 21.8963C249.328 21.6976 249.461 21.532 249.56 21.3333V24.5789H253.471V8.41699C253.471 6.95977 253.106 5.70126 252.377 4.7077H252.311ZM248.632 19.1475C248.069 20.0085 247.273 20.6047 246.246 21.0021C245.251 21.3995 244.091 21.5982 242.766 21.5982C241.871 21.5982 241.075 21.4658 240.346 21.1677C239.617 20.9028 239.054 20.4722 238.623 19.9423C238.192 19.4124 237.993 18.75 237.993 17.9552C237.993 17.0279 238.192 16.2661 238.623 15.6038C239.054 14.9414 239.683 14.4446 240.545 14.0803C241.407 13.716 242.501 13.5504 243.793 13.5504C245.218 13.5504 246.511 13.7491 247.671 14.1134C248.267 14.3121 248.864 14.544 249.427 14.8751V15.7693C249.427 17.1603 249.129 18.2864 248.566 19.1475H248.632Z" fill="#ECC99F"/>
<path d="M275.511 24.5789H270.606L261.293 13.153V24.5789H257.349V2.05823H261.293V9.9736L269.612 2.05823H274.517L264.706 11.3646L275.511 24.5789Z" fill="#ECC99F"/>
<path d="M322.077 0.336029V24.5789H318.133V9.97357L303.185 26.3011V2.0582H307.129V16.6636L322.077 0.336029Z" fill="#ECC99F"/>
<path d="M331.224 17.4915C331.887 18.7169 332.815 19.6442 333.975 20.3729C335.135 21.0683 336.461 21.4327 337.919 21.4327C339.112 21.4327 340.272 21.2339 341.333 20.8696C342.393 20.5053 343.321 19.9754 344.117 19.3462C344.912 18.7169 345.442 18.0214 345.774 17.3259V22.2275C344.978 23.1548 343.885 23.8503 342.426 24.3471C340.968 24.8439 339.477 25.1088 337.952 25.1088C335.765 25.1088 333.776 24.612 332.019 23.5853C330.263 22.5587 328.871 21.1677 327.843 19.4124C326.816 17.624 326.286 15.6038 326.286 13.3517C326.286 11.0996 326.816 9.04624 327.843 7.29095C328.871 5.53566 330.263 4.14468 332.019 3.118C333.776 2.09132 335.765 1.59454 337.952 1.59454C339.477 1.59454 340.968 1.85949 342.426 2.35627C343.885 2.85305 345.012 3.58166 345.774 4.47587V9.37743C345.442 8.6157 344.879 7.95333 344.117 7.32408C343.321 6.69482 342.393 6.19804 341.333 5.83373C340.272 5.46943 339.145 5.27072 337.919 5.27072C336.461 5.27072 335.135 5.6019 333.975 6.29739C332.815 6.99289 331.887 7.95334 331.224 9.17873C330.561 10.4041 330.23 11.7951 330.23 13.3517C330.23 14.9083 330.561 16.2993 331.224 17.5246V17.4915Z" fill="#ECC99F"/>
<path d="M367.882 24.5789H362.977L353.663 13.153V24.5789H349.752V2.05823H353.663V9.9736L361.982 2.05823H366.888L357.11 11.3646L367.882 24.5789Z" fill="#ECC99F"/>
<path d="M393.435 2.05823L378.719 35.3757H374.311L380.476 21.3996L371.858 2.05823H376.532L382.829 17.5909L389.027 2.05823H393.435Z" fill="#ECC99F"/>
<path d="M402.217 17.4915C402.88 18.7169 403.808 19.6442 404.968 20.3729C406.128 21.0683 407.453 21.4327 408.912 21.4327C410.105 21.4327 411.265 21.2339 412.325 20.8696C413.386 20.5053 414.314 19.9754 415.109 19.3462C415.905 18.7169 416.435 18.0214 416.767 17.3259V22.2275C415.971 23.1548 414.877 23.8503 413.419 24.3471C411.961 24.8439 410.469 25.1088 408.945 25.1088C406.757 25.1088 404.769 24.612 403.012 23.5853C401.255 22.5587 399.863 21.1677 398.836 19.4124C397.809 17.624 397.278 15.6038 397.278 13.3517C397.278 11.0996 397.809 9.04624 398.836 7.29095C399.863 5.53566 401.255 4.14468 403.012 3.118C404.769 2.09132 406.757 1.59454 408.945 1.59454C410.469 1.59454 411.961 1.85949 413.419 2.35627C414.877 2.85305 416.004 3.58166 416.767 4.47587V9.37743C416.435 8.6157 415.872 7.95333 415.109 7.32408C414.314 6.69482 413.386 6.19804 412.325 5.83373C411.265 5.46943 410.138 5.27072 408.912 5.27072C407.453 5.27072 406.128 5.6019 404.968 6.29739C403.808 6.99289 402.88 7.95334 402.217 9.17873C401.554 10.4041 401.222 11.7951 401.222 13.3517C401.222 14.9083 401.554 16.2993 402.217 17.5246V17.4915Z" fill="#ECC99F"/>
<path d="M425.517 17.4915C426.18 18.7169 427.108 19.6442 428.268 20.3729C429.428 21.0683 430.754 21.4327 432.212 21.4327C433.406 21.4327 434.566 21.2339 435.626 20.8696C436.687 20.5053 437.615 19.9754 438.41 19.3462C439.206 18.7169 439.736 18.0214 440.067 17.3259V22.2275C439.272 23.1548 438.178 23.8503 436.72 24.3471C435.262 24.8439 433.77 25.1088 432.246 25.1088C430.058 25.1088 428.069 24.612 426.313 23.5853C424.556 22.5587 423.164 21.1677 422.137 19.4124C421.109 17.624 420.579 15.6038 420.579 13.3517C420.579 11.0996 421.109 9.04624 422.137 7.29095C423.164 5.53566 424.556 4.14468 426.313 3.118C428.069 2.09132 430.058 1.59454 432.246 1.59454C433.77 1.59454 435.262 1.85949 436.72 2.35627C438.178 2.85305 439.305 3.58166 440.067 4.47587V9.37743C439.736 8.6157 439.172 7.95333 438.41 7.32408C437.615 6.69482 436.687 6.19804 435.626 5.83373C434.566 5.46943 433.439 5.27072 432.212 5.27072C430.754 5.27072 429.428 5.6019 428.268 6.29739C427.108 6.99289 426.18 7.95334 425.517 9.17873C424.855 10.4041 424.523 11.7951 424.523 13.3517C424.523 14.9083 424.855 16.2993 425.517 17.5246V17.4915Z" fill="#ECC99F"/>
<path d="M457.333 2.05823V5.73441H452.66V24.5789H448.749V5.73441H444.076V2.05823H457.333Z" fill="#ECC99F"/>
<path d="M477.221 15.0408C476.491 14.2128 475.53 13.6498 474.271 13.3186C474.039 13.2524 473.774 13.1861 473.509 13.153C474.635 12.7556 475.53 12.1594 476.226 11.3315C476.955 10.5035 477.287 9.44369 477.287 8.18518C477.287 6.72796 476.922 5.53569 476.226 4.64148C475.497 3.74728 474.569 3.0849 473.409 2.68748C472.249 2.29005 470.957 2.09134 469.565 2.09134H461.212V24.6121H471.023C473.608 24.6121 475.464 24.0159 476.591 22.8237C477.718 21.6314 478.281 20.1742 478.281 18.4851C478.281 17.0279 477.917 15.8687 477.187 15.0739L477.221 15.0408ZM465.156 5.50257H469.565C470.725 5.50257 471.686 5.76752 472.349 6.29742C473.011 6.82732 473.376 7.55592 473.376 8.41701C473.376 8.84755 473.277 9.24498 473.111 9.60929C472.945 9.97359 472.68 10.3379 472.349 10.6028C472.017 10.9009 471.619 11.1327 471.155 11.2652C470.691 11.3977 470.161 11.4971 469.565 11.4971H465.156V5.46945V5.50257ZM473.31 20.2404C472.614 20.8697 471.52 21.1677 470.062 21.1677H465.156V14.9083H470.062C470.824 14.9083 471.454 14.9745 471.984 15.1401C472.514 15.2726 472.978 15.5044 473.31 15.8025C473.641 16.1006 473.906 16.4317 474.105 16.7629C474.271 17.1272 474.37 17.5247 474.37 17.9883C474.37 18.8825 474.039 19.6111 473.31 20.2404Z" fill="#ECC99F"/>
<path d="M483.651 7.25782C484.679 5.50253 486.071 4.11155 487.828 3.08487C489.584 2.05819 491.573 1.5614 493.76 1.5614C495.948 1.5614 497.969 2.05819 499.726 3.08487C501.483 4.11155 502.875 5.46941 503.902 7.25782C504.929 9.04623 505.46 11.0334 505.46 13.3186C505.46 15.6037 504.929 17.5909 503.902 19.3793C502.875 21.1677 501.483 22.5587 499.726 23.5522C497.969 24.5458 495.981 25.0757 493.76 25.0757C491.54 25.0757 489.584 24.5789 487.828 23.5522C486.071 22.5255 484.679 21.1346 483.651 19.3793C482.624 17.5909 482.094 15.5706 482.094 13.3186C482.094 11.0665 482.624 9.01311 483.651 7.25782ZM487.098 17.4915C487.761 18.7169 488.689 19.6442 489.849 20.3728C491.009 21.0683 492.335 21.4326 493.793 21.4326C495.252 21.4326 496.577 21.0683 497.737 20.3728C498.897 19.6773 499.825 18.7169 500.488 17.4915C501.151 16.2992 501.483 14.9082 501.483 13.3186C501.483 11.7289 501.151 10.371 500.488 9.14559C499.825 7.9202 498.897 6.95976 497.737 6.26426C496.577 5.56877 495.252 5.23758 493.793 5.23758C492.335 5.23758 491.009 5.56877 489.849 6.26426C488.689 6.95976 487.761 7.9202 487.098 9.14559C486.436 10.371 486.104 11.762 486.104 13.3186C486.104 14.8751 486.436 16.2661 487.098 17.4915Z" fill="#ECC99F"/>
</svg>
